<svg xmlns="http://www.w3.org/2000/svg" viewBox="0 0 120 120"><rect width="120" height="120" rx="14" fill="#3D2B1F"/><path d="M35 45h44a6 6 0 0 1 6 6v6c0 16-12 28-28 28h-2c-16 0-28-12-28-28v-6a6 6 0 0 1 6-6z" fill="#F5EFE3"/><rect x="35" y="45" width="50" height="8" fill="#E8A13D"/><path d="M85 52c8-2 16 2 16 10s-8 12-16 10" fill="none" stroke="#F5EFE3" stroke-width="5"/><path d="M45 30c-2 6 4 6 2 12M60 30c-2 6 4 6 2 12M75 30c-2 6 4 6 2 12" fill="none" stroke="#E8A13D" stroke-width="4" stroke-linecap="round"/></svg>
